<svg width="16" height="16" viewBox="0 0 16 16" fill="none" xmlns="http://www.w3.org/2000/svg">
<g clip-path="url(#clip0_91_2)">
<path d="M16 8C16 12.4183 12.4183 16 8 16C3.58172 16 0 12.4183 0 8C0 3.58172 3.58172 0 8 0C12.4183 0 16 3.58172 16 8Z" fill="#1A1A1A"/>
<path fill-rule="evenodd" clip-rule="evenodd" d="M8 1C11.866 1 15 4.13401 15 8C15 11.866 11.866 15 8 15C4.13401 15 1 11.866 1 8C1 4.13401 4.13401 1 8 1ZM7.28418 4.00977C7.18392 4.00977 7.10259 4.09134 7.09668 4.19141C7.00612 5.75456 5.75455 7.00612 4.19141 7.09668C4.09136 7.10262 4.00977 7.18393 4.00977 7.28418V8.81543C4.00977 8.91568 4.09119 8.99692 4.19141 8.99707H6.82129C6.92132 8.99729 7.00274 9.07867 7.00293 9.17871V11.8086C7.00311 11.9088 7.08434 11.9902 7.18457 11.9902H8.71582C8.81605 11.9902 8.89736 11.9086 8.90332 11.8086C8.99388 10.2454 10.2454 8.99388 11.8086 8.90332C11.9086 8.89738 11.9902 8.81607 11.9902 8.71582V7.18457C11.9902 7.08432 11.9088 7.00308 11.8086 7.00293H9.17871C9.07871 7.00271 8.99732 6.92128 8.99707 6.82129V4.19141C8.99695 4.09117 8.9157 4.00977 8.81543 4.00977H7.28418Z" fill="white"/>
</g>
<defs>
<clipPath id="clip0_91_2">
<rect width="16" height="16" fill="white"/>
</clipPath>
</defs>
</svg>
