<svg width="97" height="24" viewBox="0 0 97 24" fill="none" xmlns="http://www.w3.org/2000/svg">
<path d="M88.6509 5.15112C84.2742 5.15112 80.7264 8.69893 80.7264 13.0757C80.7264 17.4524 84.2742 21.0002 88.6509 21.0002C93.0276 21.0002 96.5754 17.4524 96.5754 13.0757C96.5754 8.69893 93.0276 5.15112 88.6509 5.15112ZM88.6509 18.2266C85.8108 18.2266 83.5 15.9158 83.5 13.0757C83.5 10.2355 85.8108 7.92471 88.6509 7.92471C91.4911 7.92471 93.8019 10.2355 93.8019 13.0757C93.8019 15.9158 91.4911 18.2266 88.6509 18.2266Z" fill="white"/>
<path d="M79.9339 5.15112H75.5754L72.8019 7.92471H70.4245V21.0002H73.1981V7.92471H79.9339V5.15112Z" fill="white"/>
<path d="M64.8773 5.15112V13.8681C64.8773 16.2716 62.9224 18.2266 60.5189 18.2266C58.1153 18.2266 56.1604 16.2716 56.1604 13.8681V5.15112H53.3868V13.8681C53.3868 17.8074 56.5796 21.0002 60.5189 21.0002C62.16 21.0002 63.672 20.4455 64.8773 19.5135V21.0002H67.6509V5.15112H64.8773Z" fill="white"/>
<path d="M42.6886 5.15094C40.7218 5.15094 38.9229 5.86732 37.5377 7.05362V0H34.7641V21H37.5377V19.0973C38.9229 20.2836 40.7218 21 42.6886 21C47.0653 21 50.6132 17.4522 50.6132 13.0755C50.6132 8.69876 47.0653 5.15094 42.6886 5.15094ZM42.6886 18.2264C39.8485 18.2264 37.5377 15.9156 37.5377 13.0755C37.5377 10.2353 39.8485 7.92453 42.6886 7.92453C45.5288 7.92453 47.8396 10.2353 47.8396 13.0755C47.8396 15.9156 45.5288 18.2264 42.6886 18.2264Z" fill="white"/>
<path d="M24.0661 5.15112C19.6894 5.15112 16.1415 8.69893 16.1415 13.0757C16.1415 17.4524 19.6894 21.0002 24.0661 21.0002C26.0329 21.0002 27.8318 20.2838 29.217 19.0975V21.0002H31.9906V13.0757C31.9906 8.69893 28.4428 5.15112 24.0661 5.15112ZM24.0661 18.2266C21.2259 18.2266 18.9151 15.9158 18.9151 13.0757C18.9151 10.2355 21.2259 7.92471 24.0661 7.92471C26.9062 7.92471 29.217 10.2355 29.217 13.0757C29.217 15.9158 26.9062 18.2266 24.0661 18.2266Z" fill="white"/>
<path d="M3.066 9.11339C3.066 8.45803 3.59932 7.92471 4.25468 7.92471H9.40563C10.061 7.92471 10.5943 8.45803 10.5943 9.11339H13.3679C13.3679 6.92543 11.5936 5.15112 9.40563 5.15112H4.25468C2.06672 5.15112 0.292419 6.92543 0.292419 9.11339C0.292419 10.7878 1.33132 12.2198 2.79895 12.7999C2.79974 12.7999 2.80053 12.8007 2.80132 12.8007L10.5943 15.6377V18.2266H4.25468C3.59932 18.2266 3.066 17.6933 3.066 17.0379H0.292419C0.292419 19.2259 2.06672 21.0002 4.25468 21.0002H8.21695L10.9905 18.2266H13.3679V13.6961C13.3679 13.6961 3.84578 10.23 3.84499 10.2292C3.39091 10.062 3.066 9.62452 3.066 9.11339Z" fill="white"/>
</svg>
